<?xml version="1.0" encoding="UTF-8"?>
<svg id="Layer_1" data-name="Layer 1" xmlns="http://www.w3.org/2000/svg" version="1.1" viewBox="0 0 512 512">
  <defs>
    <style>
      .cls-1 {
        fill: #000;
        stroke-width: 0px;
      }
    </style>
  </defs>
  <path class="cls-1" d="M187.1,153c6.9-8.1,16.1-14.3,27.6-18.7,11.5-4.3,24.1-6.5,37.8-6.5s13,.5,18.9,1.6c5.9,1.1,11.5,2.4,16.6,4l53.3-3.2v7l-52.4-3.5c12.2,3.6,21.8,9.5,28.9,17.5,7,8,10.6,17.8,10.6,29.3s-3.5,20.6-10.4,28.6c-6.9,8-16.1,14.3-27.5,18.7s-24.1,6.6-37.9,6.6-6.7-.2-9.9-.5-6.3-.8-9.5-1.2c-6.8.9-12.4,3-16.7,6.2-4.3,3.2-6.5,7.5-6.5,12.8s2.8,10.1,8.4,13.1,14.2,4.5,25.7,4.5h19.9c23.9,0,41.8,4.4,53.5,13.2,11.7,8.8,17.6,21.6,17.6,38.5s-2.4,18.5-7.1,26.3c-4.8,7.8-11.1,14.4-19,19.9s-16.8,9.6-26.7,12.6c-9.9,2.9-19.9,4.4-30.3,4.4-15.6,0-29.5-1.6-41.8-4.8-12.3-3.2-21.9-7.7-28.9-13.5s-10.6-12.8-10.7-21c0-6.7,2.4-12.6,7.1-17.9,4.8-5.2,12.2-9.4,22.3-12.6,10.1-3.2,23.3-5,39.5-5.5-18.8.7-34-2.3-45.6-9.1-11.6-6.7-17.4-16.2-17.4-28.2s5-20.2,15-27.3c10-7,23.8-11,41.4-11.8-10.9-1.8-20.6-4.8-29-9.2s-15.1-10-19.9-16.9c-4.8-6.9-7.2-15-7.2-24.4s3.5-21.1,10.4-29.2ZM219.5,372.4c8,7.5,18.8,11.3,32.6,11.3s25.7-3.6,35.3-10.7c9.6-7.2,14.3-17.3,14.3-30.4s-3.4-18.7-10.2-24.5c-6.8-5.8-17.4-8.7-31.7-8.7h-19.4c-11.1.9-19.4,4.5-24.8,10.8-5.4,6.3-8.1,14.3-8.1,24.2s4,20.6,12,28.2ZM230.1,219c5.1,10,12.6,15,22.4,15s17.9-4.6,22.8-13.7c4.9-9.2,7.3-21.9,7.3-38.2s-2.5-28.4-7.6-38.5c-5-10.1-12.6-15.1-22.5-15.1s-17.9,4.6-22.8,13.8c-4.9,9.2-7.3,22-7.3,38.5s2.6,28.4,7.7,38.4Z"/>
</svg>